<?xml version="1.0" encoding="utf-8"?>
<!-- Generator: Adobe Illustrator 27.5.0, SVG Export Plug-In . SVG Version: 6.00 Build 0)  -->
<svg version="1.1" xmlns="http://www.w3.org/2000/svg" xmlns:xlink="http://www.w3.org/1999/xlink" x="0px" y="0px"
	 viewBox="0 0 750 500" style="enable-background:new 0 0 750 500;" xml:space="preserve">
<g id="BACKGROUND">
	<g>
		<g>
			<g>
				<rect y="-0.055" style="fill:#FFFFFF;" width="750" height="500"/>
			</g>
		</g>
	</g>
</g>
<g id="OBJECTS">
	<path style="fill:#0C1723;" d="M202.251,150.042c-10.37-21.185-17.481-18.518-17.481-18.518s-2.963-5.037-6.667-2.519
		c0,0-14.37-5.333-25.185,6.074c-10.815,11.407-17.185,37.778-17.185,37.778l4.148-7.407c0,0-7.556,17.926-4.148,29.333
		c0,0-1.333-12.741,5.481-21.481c0,0-6.519,17.63,0.444,28.444c0,0-8.148,7.259-15.852,11.111
		c-7.704,3.852-20.407,9.481-22.407,9.481s-9.222,0.111-19.333,7.222s-25.833,14.333-28.222,14.611
		c-2.389,0.278-12.167-1.778-15.667-1.222c-3.5,0.556-4.722,0.778-4.722,0.778l-9.833,0.222c0,0,0.5,1.5,2,1.722
		c1.5,0.222,9.111,1.056,9.111,1.056l-0.111,4.333l1.056,0.445c0,0-0.778,2.389-0.222,3.167c0.556,0.778,3.722,0.056,6.444,0
		c2.722-0.055,7.056,0.556,10.889-2.611c3.833-3.167,32.574-7.426,40.056-11.204c7.482-3.778,14.333-6.963,19.093-7.63
		c4.759-0.667,22.241-4.444,35.241-13.556c0,0,2.852,0.148,4.926,2.815c2.074,2.667,9.037,18.963,9.037,18.963
		s2.37,3.407-1.482,11.259c0,0-2.815,2.518-4.444,5.926c-1.63,3.407-9.185,20.593-9.778,22.074
		c-0.593,1.482-17.778,20.889-29.63,37.926c-11.852,17.037-15.704,27.704-16,30.667c-0.296,2.963,0.148,37.926,0.296,42.37
		c0.148,4.445,3.556,29.037,3.556,29.037l1.037,12.296c0,0-1.259,3.333-1.111,6.222c0.148,2.889,3.778,9.407,3.778,9.407
		s-1.37,17.852,4.574,22.074c5.944,4.222,15.204,1.111,15.722-8.889c0.519-10-3.037-15.704-2.741-23.926
		c0.296-8.222,0.222-13.926-0.296-15.259c-0.519-1.333-6.519-4.444-6.519-4.444s1.259-11.185,2.963-21.556
		c1.704-10.37,1.704-10.37,1.704-10.37s-1.111-22.889-0.963-25.037c0.148-2.148,3.37-4.667,9.37-12.778
		c6-8.111,24.778-26.222,31-30.111c6.222-3.889,20.333-5.111,29.333,1.667c9,6.778,17.556,15.667,30.333,25.444
		s15.667,15.222,19.778,18.778c0,0,1.333,7.444-0.778,10.444s-5.556,9.111-5.333,23.222c0.222,14.111-3,22.889-3,22.889h-3
		c0,0-2.444-3-6.667-1.889c-4.222,1.111-6.889,7.778-6.444,12.889c0.444,5.111,3.889,8.889,2.111,14.111
		c-1.778,5.222-7.222,7.222-7,13.889c0.222,6.667,3.778,13.556,9.111,14.444c5.333,0.889,7.222,0.111,10-5.556
		c2.778-5.667,4.778-13.555,7.889-17.222c3.111-3.667,4.222-10.889,4.222-10.889v-1.444l3.333-8.778
		c0,0,10.556-22.778,12.667-31.778c2.111-9,3.778-20.556,6.555-25.111c2.778-4.556,5.111-15.778-0.555-23.778
		c-5.667-8-21.333-31.444-33.667-42.222c-12.333-10.778-21.111-17.889-22.444-30.667c-1.333-12.778,2.778-23.444,5.222-31.333
		s3.556-8.778,2.444-25.444c-1.111-16.667-1.222-21.222-1.222-21.222s-4.556-23.333-1.333-32.222
		c3.222-8.889,3.111-26.556,4.444-37.333c1.333-10.778,1.333-10.778,1.333-10.778s6.333-17.555,8.556-26
		c2.222-8.444,4.111-17.889,7.444-23.222c3.333-5.333,9.556-10.333,9.556-11.889c0-1.556-1.778-1.889-1.778-1.889
		s-0.333-2,1.222-2.778c1.556-0.778,2.333-1.333,2.333-2.333s-1.889-4.111-7.556-2.667c0,0-0.778-1.444,0.222-2.556
		s5.111-6.333,4.333-8c-0.778-1.667-1.889,0-3.889,2.222c-2,2.222-10.222,12-10.667,13.667c-0.444,1.667-1.555,9-3.555,14
		s-14.111,36.889-17.556,43.222s-5,25.667-5.889,31.333C203.399,147.227,203.992,151.412,202.251,150.042z"/>
	<path style="fill:#0C1723;" d="M724.326,163.745c-0.222-5.555-15.037-4.074-19.481-4.074c-4.445,0-36,3.333-36.296,2.667
		c-0.296-0.667-7.556-14.37-9.704-17.111c0,0,5.778,4.963,10.296,14.074c0,0-5.037-14.518-16.37-22.963
		c0,0,6.222,2.815,10.667,7.926c0,0-11.926-15.481-22.296-19.852c-10.37-4.37-18.518-2.667-18.518-2.667s3.926-1.778,8.518-1.704
		c0,0-12.593-2.518-20.37,5.259c-15.556,1.037-19.556,9.926-21.778,18.074c0,0,2.37-6.222,5.037-8.37c0,0-4.889,13.556-5.037,22.444
		l2.518-6.111c0,0-1.148,4.889-2.518,9.333c-1.37,4.444-5.482,11.778-3.259,15.778c0,0,0-5.444,3.037-9.518c0,0,0,7.259-3.185,12
		c-3.185,4.741-1.185,9.482-1.185,9.482s-0.667-5.185,2.667-8.148c0,0-0.667,1.852-0.518,2.593c0,0,4.518-4.963,5.556-9.185
		c0,0-1.556,8.889-3.852,11.704c-2.296,2.815-6.296,6.408-10.407,17.074c-4.111,10.667-8.556,16.333-16.778,25.778
		c-8.222,9.444-10.111,8.222-18.667,20.889s-17.555,23.889-24,30.333c-6.444,6.444-11,6.444-14.778,9.556
		c-3.778,3.111-12.333,9.222-12.333,9.222s1.222,1,3.444,0.389l2.5-1.056l-1.389,1.667c0,0,3.167,1.333,7.055-1.833
		c3.889-3.167,5.333-3.944,8.778-4.778c3.444-0.833,8.13-1.833,14.5-9.537c6.37-7.704,24.741-18.158,35.704-33.079
		c10.963-14.921,26.815-30.18,26.815-30.18s-0.593,13.037-1.333,14.222c-0.741,1.185-9.63,11.704-9.63,11.704
		s-5.481,5.333-17.185,15.852c-11.704,10.519-16.148,23.852-18.37,45.333c-2.222,21.482-6.37,45.037-7.259,47.407
		s-4.741,16-6.074,17.63c-1.333,1.63-9.037,14.667-11.852,28.889c-2.815,14.222-5.333,29.333-5.333,29.333l0.815,0.815l-1.037,8.296
		c0,0-2.963-0.518-4,0c-1.037,0.518-3.63,4.741-3.63,4.741l-0.741,5.407c0,0-8.815,10.667-9.259,12.593
		c-0.444,1.926-1.407,7.778-0.815,9.63c0.593,1.852,4.148,2.518,8.889,2.518c4.741,0,10.951-0.074,12.667-1.333
		c1.716-1.259,4.296-6.518,5.407-7.556c1.111-1.037,1.852-0.148,1.556-5.482c-0.296-5.333,0.963-13.481,0.593-13.926
		c-0.37-0.444-0.519-1.555-0.519-1.555l2.37-11.259h1.111c0,0,3.185-9.704,8.741-20.222c5.556-10.518,7.259-13.852,9.704-23.778
		c2.444-9.926,10.148-15.778,13.63-28.222c3.482-12.444,11.407-32.296,14.815-39.333c3.408-7.037,5.333-16.296,5.333-16.296
		l3.333,0.889c0,0,7.333,4.667,15.667,24.333c8.333,19.667,22.444,47.111,25.111,57.667c0,0,0.222,5.333-0.555,7.778
		c-0.778,2.445-3,7.889-2.889,18.556c0.111,10.667-1.444,16.444-1.444,16.444l-8.222,11.222c0,0-2.444,4.667-0.667,8.889
		c1.778,4.222,6.222,5.556,7,8.333c0.778,2.778,4.889,16.111,13.333,16.889c8.445,0.778,12.333-1.444,13.333-3.667
		c1-2.222-0.667-8.111-0.778-8.444c-0.111-0.333-7.556-13.111-7.667-15.556c-0.111-2.444,0.667-8.667-0.667-9.889
		c-1.333-1.222-4.111-2.111-2.667-4.444c1.444-2.333,9.636-18.333,12.096-26.444c2.46-8.111,3.126-20.667,2.904-33.333
		c-0.222-12.667-15.37-60.704-19.222-71.667c-3.852-10.963-2.518-24.741-1.333-26.667c1.185-1.926,17.339-24.148,20.596-30.37
		c3.256-6.222,12.857-25.63,12.857-25.63s12.029-18.074,14.992-20c2.963-1.926,30.815-12.889,41.481-21.481
		C724.548,170.042,724.548,169.301,724.326,163.745z M685.067,175.171c-3.389,0.444-7.389,0-7.389,0l-0.611-2.944
		c7.722-0.444,15,1.111,15,1.111S688.456,174.727,685.067,175.171z"/>
	<path style="fill:#0C1723;" d="M505.188,106.785c-2.222-6.519-8.593-11.111-9.482-10.963c-0.889,0.148-3.259,3.37-2.37,3.981
		c0.889,0.611,3.556,6.834,1.333,11.13c-2.222,4.296-10.815,12.445-13.185,16.445c-2.37,4-1.63,6.519,6.37,11.852
		c0,0,1.481,1.481-3.704,14.074c-5.185,12.593-9.926,20.444-7.704,32.148c2.222,11.704,1.037,19.704,1.037,19.704
		s-6.963,4.148-27.407,8.593c-20.445,4.444-33.63,7.704-33.63,7.704s-9.778-7.704-19.259-6.815s-15.407,0.593-16.296-1.778
		c-0.889-2.37-4-7.704-4.741-11.407s-1.185-19.704-1.185-19.704l0.593-8.296c0,0,8.741,1.185,9.185-8c0,0,15.704-2.667,18.667-7.111
		c2.963-4.444,1.185-23.852,0-26.667c-1.185-2.815-7.704-12.148-7.704-12.148s-1.518-2.704-6.241-2.593s-5.833-0.055-5.833-0.055
		s-6.5-6.667-7.055-6.722c-0.556-0.056-1.611,0.278-1.611,0.278s-1.778,3-1.555,4.611c0,0-1.722-1-2-0.944
		c-0.278,0.056-1.389,0.333-1.389,0.333l-0.889-0.722c0,0-0.241-6.333-0.167-6.556c0.074-0.222,3.111-4.111,8.333-17.111
		S391.53,65.6,394.47,65.267c2.94-0.333,8.718-1.222,12.495,0.444c3.778,1.667,11,5.333,11,5.333s0.333-2.333,0-2.889l7.667,2.444
		c0,0-0.611-3.333-3.889-4.944c-3.278-1.611-18-7-18.5-8.278c-0.5-1.278-0.722-3.222-0.333-3.722c0.389-0.5,7.833-4.611,8.111-8.389
		c0.278-3.778-3.944-2.833-5.778-1c-1.833,1.833-5.611,5.389-7.278,4.222c-1.667-1.167-9.111-8-9.167-9.111
		c-0.056-1.111-0.111-2.111-0.556-2.389c-0.444-0.278-3.5,0.018-3.5,0.018s-11.407-0.741-12.741,0
		c-1.333,0.741-9.482,18.371-14.519,29.482c-5.037,11.111-5.333,17.037-5.037,18.222c0.296,1.185-0.08,19.111-0.08,19.111
		s-11.772,19.111-8.809,47.407c0,0-13.926,16-14.519,17.63c-0.593,1.63-0.889,5.926-0.889,5.926s-6.222,6.074-5.778,14.074
		c0.444,8,2.963,9.63,2.963,10.074c0,0.445,0.148,7.704,0.741,8.296c0.593,0.593,2.963,10.222,3.555,12.444
		c0.593,2.222,29.926,32.593,29.926,32.593l14.37,16c0,0-0.852,4.111-7.185,13.556c-6.333,9.444-9.889,19.889-13.667,32.333
		s-8,15.111-9,24.444c-1,9.333-2.556,13.778-5.556,17.778c-3,4-10.667,17.111-15.111,24.111c-4.445,7-12.111,18.111-12.111,18.111
		s-11,13.111-14.111,16.889c-3.111,3.778-4.778,7.333-5.889,10.889c-1.111,3.556-5.222,10.889-8.333,13.889
		c-3.111,3,0.111,5.889,5,4.333c4.889-1.555,15.445-14.111,18.778-15.555c3.333-1.445,11.333-0.556,14.667-2.333
		c3.333-1.778,3.333-7.333,2.889-11.111c-0.444-3.778,0.556-6.111,3.444-10.889c2.889-4.778,10-13.333,19.111-22.889
		c9.111-9.556,13.444-16.556,18.222-32.778s6.778-14.111,20.889-31.222c14.111-17.111,33.445-42.667,32.333-55.333
		c0,0,25.852-13.333,50-23.111c24.148-9.778,29.481-14.815,31.259-19.111c1.778-4.296,2.519-70.963,5.63-77.778
		C508.299,135.674,507.41,113.304,505.188,106.785z M375.632,52.655c0.445-2.111,1-3,1-3s10,5.167,10.667,5.889
		c0.667,0.722-13.444,15.222-13.444,15.222S375.188,54.767,375.632,52.655z"/>
</g>
</svg>
